<svg id="Слой_1" data-name="Слой 1" xmlns="http://www.w3.org/2000/svg" viewBox="0 0 938.16 938.16"><defs><style>.cls-1{fill:#030205;}</style></defs><title>kosmos_logo_new_circle</title><path class="cls-1" d="M684.28,230h0l-1.8,0c-247.32,1-450,194.22-466.14,437.71-.69,10.33-1.15,20.77-1.15,31.35,0,11.62.57,23.15,1.41,34.62,17.74,241.92,219.68,433.45,465.88,434.38l1.8.06c258,0,468.06-209.45,469-467.29l0-1.77C1153.36,440.41,942.92,230,684.28,230Zm0,924.28c-251,0-455.24-204.16-455.24-455.19S433.28,243.82,684.28,243.82,1139.5,448,1139.5,699.06,935.29,1154.24,684.28,1154.24Z" transform="translate(-215.2 -229.96)"/><path class="cls-1" d="M877.25,564.35c-2.92,28.46-10.76,104.31-10.76,104.45a320.88,320.88,0,0,0-1.33,36.71c0,1,.12,2,.17,3,.16,5,.36,10.06.76,15.05l.21,2.07c.43,5.26,1,10.52,1.66,15.72l.13.85c9.42,70.44,40,134.72,73,186.27a343.06,343.06,0,0,0,87.52-229.35c0-190.2-154.27-344.49-344.44-344.49S339.64,508.92,339.64,699.12A342.42,342.42,0,0,0,378,857c267.61,133.28,420.69-24.15,491.09-303.29l-.56.42-10.34,20.42,4.51-23.14L869.28,541a147.27,147.27,0,0,1,2.88-32.72,104.31,104.31,0,0,1,14.4-34.94h.19a48.75,48.75,0,0,1,5.37-7.64s7.23,22.16,2.21,46.93c-2.38,12.62-5.82,23.69-9.52,31.37l2.25,12.31-4.5,22.91-1.85-22.65-1.79-3.16-.56.31a5.46,5.46,0,0,1-3,1.49l-1,4.82-3.27,16.9-1.35-.1L874,555.07a5.11,5.11,0,0,1-2.12-2.33C812.64,820.36,679.6,941,519.12,1001.48a336.32,336.32,0,0,0,63.18,26.61c183.22-118.68,257.48-264.86,292.07-468l1-4.87a5.19,5.19,0,0,0,3-1.46s-.18,1.8-.52,4.92C877.68,560.26,877.48,562.17,877.25,564.35ZM459,710.17,456.28,730l-2.71-19.8-12.61-3,12.3-3,3-40.32,3,40.32,19.5,3Zm61.18-180.61-4.31,29L511.47,530l-27.17-4.33,27.17-4.23,4.39-28.63L520.18,522l15,3.72Zm98.69,34.51-4.34,58.79-4.19-58.79-28.67-4.38,29.1-4.28,3.76-29,3.92,29L637,559.7Zm64.49-120.44-1.67,12.58L680,443.63l-12.63-1.94,12.51-1.79,1.77-25.66,1.93,25.66,7.81,1.79Zm93.75,93.77-3.64,27.28-3.59-27.28-17.52-4.21,17.1-4.08,4-35.82,4,35.82,27.2,4.08Z" transform="translate(-215.2 -229.96)"/><polygon class="cls-1" points="217.69 174.25 217.72 174.24 217.72 174.19 217.69 174.25"/><polygon class="cls-1" points="567.21 94.04 567.26 94.08 567.27 94.08 567.21 94.04"/><path class="cls-1" d="M911.19,384.63l0,.06Z" transform="translate(-215.2 -229.96)"/><polygon class="cls-1" points="207.74 217.75 208.68 219.79 208.01 221.77 206.06 222.78 156.71 225.89 181.49 247.66 182.47 249.64 181.75 251.66 179.8 252.68 177.74 251.93 122.2 203.16 121.19 201.21 121.94 199.15 123.85 198.17 125.95 198.88 150.72 220.64 147.44 171.31 148.2 169.24 150.07 168.31 152.22 168.98 153.06 170.94 156.35 220.29 205.69 217.16 207.74 217.75"/><path class="cls-1" d="M457.05,420.75A38.84,38.84,0,0,1,443,427.84a39.8,39.8,0,0,1-29.78-3.56A39.74,39.74,0,0,1,394.08,400a39.82,39.82,0,0,1,3.56-29.78A39.86,39.86,0,0,1,422,351.07a39.82,39.82,0,0,1,29.77,3.56,39.74,39.74,0,0,1,19.12,24.31,39.74,39.74,0,0,1-3.57,29.78A38.85,38.85,0,0,1,457.05,420.75Zm-45.68-58.1A33.6,33.6,0,0,0,402.57,373a34.41,34.41,0,0,0-4,12.44,34,34,0,0,0,1,13A34.39,34.39,0,0,0,416,419.34a34,34,0,0,0,37.58-3.06,33.66,33.66,0,0,0,8.81-10.34,33.77,33.77,0,0,0,3-25.47A34.51,34.51,0,0,0,449,359.57a33.73,33.73,0,0,0-25.46-3A33.21,33.21,0,0,0,411.37,362.64Z" transform="translate(-215.2 -229.96)"/><path class="cls-1" d="M516.69,334.46l1.68,1.44a38.76,38.76,0,0,1,4.23,15.2,39.82,39.82,0,0,1-9.27,28.53A38.66,38.66,0,0,1,501,389.42l-2.53,1.3-2.18.21-1.64-1.46-.19-2.13,1.43-1.68,2.53-1.3a32.62,32.62,0,0,0,10.14-7.9,35.8,35.8,0,0,0,6.35-10.7,33.77,33.77,0,0,0-.39-24.69l-32.83,16.73-2.18.21-1.65-1.46a38.64,38.64,0,0,1-4.22-15.19,39.75,39.75,0,0,1,9.26-28.53,38.68,38.68,0,0,1,12.36-9.8l2.53-1.29,2.14-.2L501.6,303l.17,2.21-1.42,1.62-2.53,1.29A33.34,33.34,0,0,0,487.64,316a34.54,34.54,0,0,0-8.5,22.9,31.37,31.37,0,0,0,2.59,12.46l32.82-16.72Z" transform="translate(-215.2 -229.96)"/><path class="cls-1" d="M550.88,365.63a3.73,3.73,0,0,1-3-.09,3.9,3.9,0,0,1-2.19-2.2,3.34,3.34,0,0,1,.19-3,3.45,3.45,0,0,1,2.08-2,3.83,3.83,0,0,1,3,.06,3.49,3.49,0,0,1,2,2.14,3.83,3.83,0,0,1,0,3.06A3.75,3.75,0,0,1,550.88,365.63Z" transform="translate(-215.2 -229.96)"/><path class="cls-1" d="M592.84,269.92a2.58,2.58,0,0,1,2.39,2.09l17.91,71.71-.33,2.19-1.74,1.25-2.18-.27-1.27-1.8L591.37,280l-11,18.22-1.19,1.11-1.62.3-1.05-.44-18.2-10.93,16.26,65.08-.33,2.19-1.73,1.25-2.18-.27L569,354.75,551.11,283a2.7,2.7,0,0,1,1-3,2.67,2.67,0,0,1,3.12-.19L577,293l13-21.75A2.52,2.52,0,0,1,592.84,269.92Z" transform="translate(-215.2 -229.96)"/><path class="cls-1" d="M663.85,340.48a39,39,0,0,1-15.58-2.5,39.87,39.87,0,0,1-22-20.34,39.79,39.79,0,0,1-1.25-30.9,39.82,39.82,0,0,1,20.33-22,39.91,39.91,0,0,1,30.9-1.25,39.82,39.82,0,0,1,22,20.34,39.84,39.84,0,0,1,1.25,30.9,39.9,39.9,0,0,1-20.33,22.05A38.77,38.77,0,0,1,663.85,340.48Zm-3-73.86a33.88,33.88,0,0,0-13.18,3.21,33.73,33.73,0,0,0-17.39,18.86,34.42,34.42,0,0,0,1.07,26.58,33.73,33.73,0,0,0,18.86,17.39,34.52,34.52,0,0,0,26.58-1.08,33.65,33.65,0,0,0,17.39-18.85,34.29,34.29,0,0,0-8.78-37.14,34.41,34.41,0,0,0-11.15-6.84A34,34,0,0,0,660.86,266.62Z" transform="translate(-215.2 -229.96)"/><path class="cls-1" d="M762.89,305.57l.53,2.16a38.93,38.93,0,0,1-5.51,14.79,39.74,39.74,0,0,1-24.25,17.63,38.62,38.62,0,0,1-15.77.68l-2.81-.45-1.89-1.1-.47-2.15,1.09-1.84,2.16-.53,2.81.45a32.64,32.64,0,0,0,12.85-.45,35.45,35.45,0,0,0,11.43-4.93,33.71,33.71,0,0,0,14.18-20.21l-36.39-5.74-1.9-1.11-.46-2.15A38.81,38.81,0,0,1,724,285.84a39.88,39.88,0,0,1,24.26-17.64,39,39,0,0,1,15.76-.68l2.81.45,1.84,1.1.52,2.15L768,273.11l-2.09.48-2.8-.44a33,33,0,0,0-12.91.43,34.47,34.47,0,0,0-20.33,13.54,31.23,31.23,0,0,0-5.23,11.6L761,304.48Z" transform="translate(-215.2 -229.96)"/><path class="cls-1" d="M772.14,350.85a3.7,3.7,0,0,1-2.35-1.8,3.91,3.91,0,0,1-.48-3.06,3.33,3.33,0,0,1,1.91-2.32,3.45,3.45,0,0,1,2.88-.41,3.72,3.72,0,0,1,2.39,1.8,3.46,3.46,0,0,1,.41,2.93,3.88,3.88,0,0,1-1.82,2.47A3.82,3.82,0,0,1,772.14,350.85Z" transform="translate(-215.2 -229.96)"/><path class="cls-1" d="M862.2,297.93a2.59,2.59,0,0,1,.72,3.11l-27.5,68.6-1.56,1.58h-2.15l-1.6-1.5,0-2.19,25-62.28-19.62,8.3-1.62.21-1.49-.71-.59-1-8.34-19.51-25,62.26-1.55,1.58h-2.15l-1.6-1.51,0-2.19,27.5-68.6a2.81,2.81,0,0,1,5.19-.12l10,23.36,23.25-10A2.51,2.51,0,0,1,862.2,297.93Z" transform="translate(-215.2 -229.96)"/><path class="cls-1" d="M924.45,331.4l1.29,1.71-.33,2.19-38.27,63.24-1.78,1.31-2.12-.35L880.8,398a38.69,38.69,0,0,1-11.6-10.68A39.72,39.72,0,0,1,862,358.22a38.79,38.79,0,0,1,5.33-14.85l19.14-31.61,1.74-1.35,2.16.38,1.29,1.71-.33,2.19-19.13,31.62a33.58,33.58,0,0,0-4.6,12.77A33.69,33.69,0,0,0,873.75,384a33.65,33.65,0,0,0,10,9.17l36.8-60.8,1.74-1.33Z" transform="translate(-215.2 -229.96)"/><path class="cls-1" d="M956.38,403.65l-.68,2.11a38.56,38.56,0,0,1-12.37,9.77,39.71,39.71,0,0,1-29.89,2.5,38.76,38.76,0,0,1-13.82-7.59l-2.17-1.85-1-1.93.71-2.07,1.89-1,2.11.68,2.17,1.83a32.72,32.72,0,0,0,11.22,6.28,35.69,35.69,0,0,0,12.33,1.72,33.71,33.71,0,0,0,22.61-9.92l-28.12-23.78-1-1.93.71-2.08a38.88,38.88,0,0,1,12.36-9.78,39.8,39.8,0,0,1,29.89-2.49,38.64,38.64,0,0,1,13.82,7.59l2.17,1.84,1,1.89-.67,2.11-2,1-2-.68L973.4,376a33.38,33.38,0,0,0-11.27-6.34,34.65,34.65,0,0,0-24.39,1,31.51,31.51,0,0,0-10.5,7.21l28.13,23.79Z" transform="translate(-215.2 -229.96)"/><polygon class="cls-1" points="725.25 216.84 724.41 214.79 725.34 212.8 778.74 161.71 780.77 160.87 782.76 161.8 783.56 163.8 782.67 165.82 729.27 216.92 727.2 217.72 725.25 216.84"/><path class="cls-1" d="M1024.59,434.74A34.16,34.16,0,0,0,999,431.48a34.52,34.52,0,0,0-21.07,16.24,33.85,33.85,0,0,0-4.12,12.43,34.91,34.91,0,0,0,.87,13.05,33.12,33.12,0,0,0,6,12.12l1.74,2.25.62,2.1-1.14,1.89-2.1.61L977.91,491l-1.74-2.25a38.75,38.75,0,0,1-7-14.16,39.65,39.65,0,0,1,3.85-29.74A39.83,39.83,0,0,1,997.54,426a39.85,39.85,0,0,1,29.74,3.85,38.88,38.88,0,0,1,11.91,10.34l1.74,2.25.62,2.1-1.14,1.88-2,.55-1.88-1.13-1.74-2.26A33,33,0,0,0,1024.59,434.74Z" transform="translate(-215.2 -229.96)"/><polygon class="cls-1" points="818.15 368.96 815.92 368.76 814.55 367.2 814.63 365 836.45 320.63 805.25 331.32 803.04 331.17 801.65 329.55 801.73 327.35 803.42 325.94 873.34 301.98 875.53 302.08 876.94 303.77 876.84 305.89 875.17 307.37 843.97 318.04 888.43 339.73 889.84 341.4 889.71 343.49 888.07 345.01 885.95 344.79 841.51 323.11 819.69 367.48 818.15 368.96"/><path class="cls-1" d="M1039.85,642.21a38.62,38.62,0,0,1,.85-15.75,39.79,39.79,0,0,1,17.91-24.05,39.86,39.86,0,0,1,30.61-4.48,39.72,39.72,0,0,1,24,17.92,39.71,39.71,0,0,1,4.48,30.6,39.74,39.74,0,0,1-17.92,24,39.76,39.76,0,0,1-30.6,4.49,39.86,39.86,0,0,1-24.05-17.92A38.59,38.59,0,0,1,1039.85,642.21ZM1113,631.53a33.46,33.46,0,0,0-4.56-12.78,33.77,33.77,0,0,0-20.57-15.33,33.66,33.66,0,0,0-13.55-.71,33.31,33.31,0,0,0-12.78,4.57,33.74,33.74,0,0,0-15.32,20.55,34.47,34.47,0,0,0,3.85,26.34,33.76,33.76,0,0,0,20.56,15.31,34.43,34.43,0,0,0,26.34-3.85,33.72,33.72,0,0,0,15.32-20.56A33.45,33.45,0,0,0,1113,631.53Z" transform="translate(-215.2 -229.96)"/><path class="cls-1" d="M1084.88,736.94l-2.09.75a38.9,38.9,0,0,1-15.28-3.94,39.82,39.82,0,0,1-20.06-22.29,38.92,38.92,0,0,1-2.31-15.6l.15-2.84.9-2,2.08-.68,2,.9.74,2.1-.15,2.83a32.67,32.67,0,0,0,1.78,12.74,35.68,35.68,0,0,0,6.09,10.85,33.75,33.75,0,0,0,21.57,12l1.94-36.8.9-2,2.08-.69a38.91,38.91,0,0,1,15.27,3.93,39.78,39.78,0,0,1,20.07,22.3,38.81,38.81,0,0,1,2.31,15.59l-.14,2.85-.91,1.94-2.09.75-2-1-.69-2,.14-2.84a33.17,33.17,0,0,0-1.77-12.78,34.55,34.55,0,0,0-15.58-18.82,31.77,31.77,0,0,0-12.08-4l-1.93,36.8Z" transform="translate(-215.2 -229.96)"/><path class="cls-1" d="M1040.83,750.66a3.69,3.69,0,0,1,1.55-2.53,3.93,3.93,0,0,1,3-.8,4.1,4.1,0,0,1,3.21,4.46,3.75,3.75,0,0,1-1.56,2.59,3.44,3.44,0,0,1-2.87.7,3.83,3.83,0,0,1-2.63-1.56A3.72,3.72,0,0,1,1040.83,750.66Z" transform="translate(-215.2 -229.96)"/><path class="cls-1" d="M1102.84,834.72a2.57,2.57,0,0,1-3,1l-71.1-20.2-1.74-1.37-.22-2.14,1.33-1.75,2.18-.21,64.54,18.33-10.31-18.64-.38-1.58.57-1.55.9-.7,18.54-10.34-64.54-18.33-1.73-1.37-.23-2.14L1039,772l2.18-.21L1112.25,792a2.71,2.71,0,0,1,2,2.36,2.66,2.66,0,0,1-1.38,2.79l-22.18,12.39,12.4,22.07A2.49,2.49,0,0,1,1102.84,834.72Z" transform="translate(-215.2 -229.96)"/><path class="cls-1" d="M1006.18,861.54a38.63,38.63,0,0,1,9.92-12.27,39.79,39.79,0,0,1,28.6-9,39.78,39.78,0,0,1,27.44,14.3,39.8,39.8,0,0,1,9,28.6,39.8,39.8,0,0,1-14.28,27.43,39.77,39.77,0,0,1-28.6,9,39.84,39.84,0,0,1-27.43-14.3,39.69,39.69,0,0,1-9-28.6A38.71,38.71,0,0,1,1006.18,861.54Zm65.55,34.13a33.46,33.46,0,0,0,3.78-13,33.8,33.8,0,0,0-7.72-24.47,34.54,34.54,0,0,0-23.6-12.28,33.81,33.81,0,0,0-24.46,7.71,34.55,34.55,0,0,0-12.29,23.61,33.76,33.76,0,0,0,7.72,24.47,34.43,34.43,0,0,0,23.6,12.28,33.69,33.69,0,0,0,24.46-7.72A33.49,33.49,0,0,0,1071.73,895.67Z" transform="translate(-215.2 -229.96)"/><path class="cls-1" d="M987.31,964.65l-2.14-.62a38.67,38.67,0,0,1-10.08-12.12,39.7,39.7,0,0,1-3.23-29.82,38.69,38.69,0,0,1,7.26-14l1.78-2.22,1.9-1.1,2.1.67L986,907.3l-.62,2.12-1.78,2.23a32.62,32.62,0,0,0-6,11.35,35.91,35.91,0,0,0-1.41,12.37,33.76,33.76,0,0,0,10.47,22.37l23.1-28.7,1.9-1.1,2.09.66a38.75,38.75,0,0,1,10.09,12.13,39.82,39.82,0,0,1,3.24,29.82,38.83,38.83,0,0,1-7.26,14l-1.78,2.22-1.87,1.05-2.12-.62-1.06-2,.62-2,1.78-2.21a33,33,0,0,0,6-11.42,34.4,34.4,0,0,0-1.63-24.36,31.45,31.45,0,0,0-7.46-10.31l-23.09,28.7Z" transform="translate(-215.2 -229.96)"/><path class="cls-1" d="M943.45,950.13a3.73,3.73,0,0,1,2.73-1.14,3.93,3.93,0,0,1,2.9,1.11,3.36,3.36,0,0,1,1.06,2.81,3.43,3.43,0,0,1-1.07,2.69,3.78,3.78,0,0,1-2.77,1.18,3.45,3.45,0,0,1-2.74-1.12,3.82,3.82,0,0,1-1.22-2.81A3.7,3.7,0,0,1,943.45,950.13Z" transform="translate(-215.2 -229.96)"/><path class="cls-1" d="M944.33,1054.56a2.57,2.57,0,0,1-3-.93L895.6,995.53l-.59-2.14,1.07-1.86,2.1-.63,1.89,1.12,41.46,52.73,2.61-21.15.63-1.5,1.36-.92,1.14,0,21.08,2.51L926.9,970.94l-.6-2.14,1.07-1.86,2.11-.64,1.89,1.12,45.68,58.1a2.82,2.82,0,0,1-2.5,4.56l-25.22-3-2.94,25.15A2.49,2.49,0,0,1,944.33,1054.56Z" transform="translate(-215.2 -229.96)"/><path class="cls-1" d="M884,1091.79l-2.12.25-1.73-1.39-35.23-65-.21-2.2,1.36-1.66,2.5-1.35a38.81,38.81,0,0,1,15.08-4.62,39.79,39.79,0,0,1,28.75,8.53,38.84,38.84,0,0,1,10.12,12.11l17.62,32.5.27,2.16-1.42,1.68-2.13.25-1.72-1.38-17.62-32.5a33.49,33.49,0,0,0-8.68-10.42,34.37,34.37,0,0,0-11.58-6.08,34.23,34.23,0,0,0-26,2.77l33.87,62.48.28,2.17Z" transform="translate(-215.2 -229.96)"/><path class="cls-1" d="M805.83,1083.45l-1.5-1.64a38.72,38.72,0,0,1-2.33-15.6,39.78,39.78,0,0,1,12.7-27.16,38.75,38.75,0,0,1,13.47-8.21l2.67-1,2.2.06,1.44,1.65-.06,2.15-1.63,1.5-2.67,1a32.34,32.34,0,0,0-11,6.59,35.66,35.66,0,0,0-7.62,9.84,33.82,33.82,0,0,0-2.65,24.54l34.64-12.57,2.19.05,1.45,1.66a38.73,38.73,0,0,1,2.33,15.59,39.8,39.8,0,0,1-12.7,27.17,38.76,38.76,0,0,1-13.48,8.2l-2.66,1-2.15-.08-1.5-1.63.1-2.21,1.6-1.43,2.67-1a33.44,33.44,0,0,0,11.08-6.62,35,35,0,0,0,7.63-9.85,35.37,35.37,0,0,0,3.63-11.83,31.52,31.52,0,0,0-1-12.69L808,1083.51Z" transform="translate(-215.2 -229.96)"/><polygon class="cls-1" points="561 818.23 563.18 818.53 564.44 820.32 582.19 892.05 581.91 894.23 580.12 895.5 578 895.21 576.68 893.42 558.92 821.68 559.26 819.49 561 818.23"/><path class="cls-1" d="M744.81,1127.18a34.3,34.3,0,0,0,15.55-20.55A34.13,34.13,0,0,0,748,1070.49a34.9,34.9,0,0,0-11.74-5.74,33.12,33.12,0,0,0-13.49-.85l-2.83.38-2.12-.51-1.07-1.92.51-2.14,1.93-1.06,2.81-.39a38.86,38.86,0,0,1,15.74,1,39.83,39.83,0,0,1,23.89,18.14,39.81,39.81,0,0,1,4.19,30.64,39.92,39.92,0,0,1-18.14,23.88,38.71,38.71,0,0,1-14.9,5.18l-2.81.4-2.13-.51-1.07-1.93.53-2,1.92-1.07,2.82-.39A33.23,33.23,0,0,0,744.81,1127.18Z" transform="translate(-215.2 -229.96)"/><polygon class="cls-1" points="382.91 822.85 384.2 821.03 386.25 820.61 388.1 821.78 415.64 862.86 421.97 830.5 423.19 828.65 425.3 828.25 427.16 829.43 427.54 831.59 413.34 904.12 412.17 905.98 410.01 906.36 408.21 905.2 407.77 903.03 414.1 870.66 373.12 898.33 370.96 898.72 369.22 897.58 368.71 895.38 369.98 893.66 410.96 866 383.43 824.92 382.91 822.85"/><path class="cls-1" d="M557.55,1036.94a38.57,38.57,0,0,1,13.23,8.56,39.86,39.86,0,0,1,12,27.51,39.82,39.82,0,0,1-11.33,28.78,39.77,39.77,0,0,1-27.51,12,39.79,39.79,0,0,1-28.77-11.33,39.74,39.74,0,0,1-12-27.5,39.88,39.88,0,0,1,11.33-28.78,39.92,39.92,0,0,1,27.5-12A38.79,38.79,0,0,1,557.55,1036.94Zm-27.09,68.76a33.59,33.59,0,0,0,13.36,2.39,33.71,33.71,0,0,0,23.51-10.23,34.49,34.49,0,0,0,9.76-24.75,33.81,33.81,0,0,0-10.23-23.52,34.51,34.51,0,0,0-24.76-9.76,33.8,33.8,0,0,0-23.53,10.23,33.87,33.87,0,0,0-7.36,11.4,33.5,33.5,0,0,0-2.38,13.36,34,34,0,0,0,21.63,30.88Z" transform="translate(-215.2 -229.96)"/><path class="cls-1" d="M452.89,1028.94l.39-2.2a38.8,38.8,0,0,1,11-11.29,39.73,39.73,0,0,1,29.31-6.36,39,39,0,0,1,14.69,5.75l2.4,1.55,1.28,1.77-.43,2.16-1.74,1.24-2.19-.4-2.39-1.53a32.51,32.51,0,0,0-11.93-4.79,35.69,35.69,0,0,0-12.45-.1,33.7,33.7,0,0,0-21.13,12.77l31,19.95,1.29,1.78-.45,2.15a38.73,38.73,0,0,1-11,11.31,39.74,39.74,0,0,1-29.31,6.35,39,39,0,0,1-14.7-5.76l-2.39-1.54-1.24-1.74.39-2.18,1.82-1.26,2.11.41,2.38,1.55a33.45,33.45,0,0,0,12,4.81,34.76,34.76,0,0,0,12.44.1,35.28,35.28,0,0,0,11.62-4.28,31.52,31.52,0,0,0,9.47-8.52l-31-19.95Z" transform="translate(-215.2 -229.96)"/><path class="cls-1" d="M462.78,983.83a3.72,3.72,0,0,1,1.42,2.61,3.91,3.91,0,0,1-.8,3,3.4,3.4,0,0,1-2.68,1.35,3.46,3.46,0,0,1-2.8-.79,3.8,3.8,0,0,1-1.46-2.62,3.49,3.49,0,0,1,.82-2.84,3.81,3.81,0,0,1,2.66-1.51A3.74,3.74,0,0,1,462.78,983.83Z" transform="translate(-215.2 -229.96)"/><path class="cls-1" d="M358.81,995.49a2.57,2.57,0,0,1,.61-3.13l53-51.5,2.06-.82,2,.87.85,2-.91,2-48.1,46.76,21.3.39,1.56.46,1.07,1.27.14,1.13-.3,21.22,48.11-46.77,2.06-.81,2,.87.85,2-.9,2-53,51.51a2.81,2.81,0,0,1-4.79-2l.36-25.41-25.32-.28A2.49,2.49,0,0,1,358.81,995.49Z" transform="translate(-215.2 -229.96)"/><path class="cls-1" d="M384.24,898.84a38.62,38.62,0,0,1,5.69,14.71,39.78,39.78,0,0,1-6.45,29.29,39.83,39.83,0,0,1-26.07,16.65A39.74,39.74,0,0,1,328.13,953,39.82,39.82,0,0,1,311.48,927a39.88,39.88,0,0,1,6.45-29.3A39.73,39.73,0,0,1,344,881a39.72,39.72,0,0,1,29.28,6.44A38.71,38.71,0,0,1,384.24,898.84ZM322,938.63a33.46,33.46,0,0,0,9.42,9.77,34.16,34.16,0,0,0,12,5.24,34.58,34.58,0,0,0,13.07.29,34.28,34.28,0,0,0,27.65-26.31,34.14,34.14,0,0,0,.29-13.07A34.37,34.37,0,0,0,370,892.13,33.75,33.75,0,0,0,345,886.6a34.28,34.28,0,0,0-27.65,26.31A34.25,34.25,0,0,0,317,926,33.63,33.63,0,0,0,322,938.63Z" transform="translate(-215.2 -229.96)"/><path class="cls-1" d="M304,830.72l1.6-1.54a38.78,38.78,0,0,1,15.55-2.7,39.73,39.73,0,0,1,27.47,12,38.83,38.83,0,0,1,8.54,13.26l1,2.67v2.19l-1.62,1.49-2.15,0-1.55-1.59-1-2.65A32.62,32.62,0,0,0,345,843a35.58,35.58,0,0,0-10-7.38,33.7,33.7,0,0,0-24.6-2l13.41,34.32v2.2l-1.62,1.48a38.65,38.65,0,0,1-15.54,2.72,39.75,39.75,0,0,1-27.47-12A38.56,38.56,0,0,1,270.61,849l-1-2.64v-2.15l1.6-1.55,2.22.06,1.46,1.56,1,2.65a33.07,33.07,0,0,0,6.9,10.92,34.52,34.52,0,0,0,10,7.37,35.29,35.29,0,0,0,11.92,3.34,31.32,31.32,0,0,0,12.66-1.35L304,832.87Z" transform="translate(-215.2 -229.96)"/><path class="cls-1" d="M338.41,799.82a3.7,3.7,0,0,1-.37,2.92,3.88,3.88,0,0,1-2.41,2,3.29,3.29,0,0,1-3-.48,3.4,3.4,0,0,1-1.8-2.26,3.82,3.82,0,0,1,.35-3,3.51,3.51,0,0,1,2.33-1.82,3.83,3.83,0,0,1,3,.35A3.71,3.71,0,0,1,338.41,799.82Z" transform="translate(-215.2 -229.96)"/><path class="cls-1" d="M247.42,748.89a2.59,2.59,0,0,1,2.32-2.18L322.86,736l2.15.54,1.08,1.86-.49,2.14-1.91,1.08-66.38,9.76,17.05,12.78,1,1.29.13,1.65-.54,1-12.66,17,66.37-9.77,2.15.56,1.08,1.85-.49,2.14L329.47,781l-73.12,10.74a2.82,2.82,0,0,1-2.73-4.43L268.8,766.9l-20.38-15.06A2.5,2.5,0,0,1,247.42,748.89Z" transform="translate(-215.2 -229.96)"/><path class="cls-1" d="M245.08,678.27l.83-2,2.07-.81,73.89,1.31,2,.89.76,2-.05,2.83a38.53,38.53,0,0,1-3.4,15.41,39.7,39.7,0,0,1-21.58,20.84,38.65,38.65,0,0,1-15.52,2.83L247.16,721l-2-.83-.76-2.06.83-2,2.06-.82,37,.67a33.86,33.86,0,0,0,13.35-2.43A33.87,33.87,0,0,0,316,695.69a33.31,33.31,0,0,0,2.91-13.25l-71.05-1.28-2-.82Z" transform="translate(-215.2 -229.96)"/><path class="cls-1" d="M291.52,614.13l2.16-.49a39.16,39.16,0,0,1,14.68,5.78A39.83,39.83,0,0,1,325.55,644a38.8,38.8,0,0,1,.38,15.78l-.5,2.8-1.14,1.89-2.15.42-1.82-1.13-.49-2.17.49-2.8a32.65,32.65,0,0,0-.2-12.86,35.75,35.75,0,0,0-4.72-11.52,33.72,33.72,0,0,0-19.94-14.55L289,656.13,287.9,658l-2.15.42a38.7,38.7,0,0,1-14.68-5.77,39.9,39.9,0,0,1-17.19-24.59,38.72,38.72,0,0,1-.38-15.76l.5-2.81,1.13-1.81,2.17-.48,1.86,1.19.44,2.1-.49,2.8a33,33,0,0,0,.19,12.91,34.53,34.53,0,0,0,13.16,20.57,31.2,31.2,0,0,0,11.5,5.44L290.39,616Z" transform="translate(-215.2 -229.96)"/><polygon class="cls-1" points="121.58 376.34 120.25 378.1 118.07 378.3 47.02 357.94 45.27 356.61 45.07 354.42 46.37 352.73 48.59 352.47 119.63 372.82 121.37 374.21 121.58 376.34"/><path class="cls-1" d="M283.87,539.84a34.61,34.61,0,0,0,2.74,12.81A34.17,34.17,0,0,0,294,563.54,33.35,33.35,0,0,0,305.31,571a33.86,33.86,0,0,0,26.15-.23,34.78,34.78,0,0,0,10.81-7.34,33.1,33.1,0,0,0,7.45-11.28l1.07-2.63,1.5-1.6,2.19,0,1.6,1.5,0,2.2L355,554.3a38.57,38.57,0,0,1-8.69,13.16,39.72,39.72,0,0,1-27.6,11.71A39.74,39.74,0,0,1,290,567.59,39.8,39.8,0,0,1,278.3,540a38.71,38.71,0,0,1,2.9-15.51l1.06-2.63,1.51-1.6,2.19,0,1.49,1.46,0,2.19-1.07,2.63A33.23,33.23,0,0,0,283.87,539.84Z" transform="translate(-215.2 -229.96)"/><polygon class="cls-1" points="235.39 197.69 235.41 197.68 235.41 197.63 235.39 197.69"/><polygon class="cls-1" points="560.63 123.05 560.67 123.09 560.69 123.09 560.63 123.05"/><path class="cls-1" d="M895.67,409.42l0,.06Z" transform="translate(-215.2 -229.96)"/><polygon class="cls-1" points="113.98 274.3 92.86 257.27 117.69 267.13 133.88 247.46 124.53 271.14 145.32 288.06 120.04 277.85 110.03 288.11 113.98 274.3"/><polygon class="cls-1" points="800.58 254.89 810.68 265.06 835.88 254.64 815.22 271.73 824.77 295.33 808.42 275.8 783.67 285.86 804.65 268.66 800.58 254.89"/><polygon class="cls-1" points="462.29 870.33 466.29 843.51 470.35 869.91 495.5 873.91 470.35 877.83 466.29 904.33 462.29 877.36 448.38 873.91 462.29 870.33"/></svg>