<svg xmlns="http://www.w3.org/2000/svg" viewBox="0 0 220.45 237.28"><title>kosmos_square</title><g id="Слой_2" data-name="Слой 2"><g id="Слой_1-2" data-name="Слой 1"><path d="M217.48,0H3A2.94,2.94,0,0,0,0,2.94v231.4a3,3,0,0,0,3,2.94h214.5a3,3,0,0,0,3-2.94V2.94A3,3,0,0,0,217.48,0ZM35.89,228.68a.32.32,0,0,1-.3.32h-5a.33.33,0,0,1-.33-.32v-18.4l-4.64,18.48a.32.32,0,0,1-.3.25H20.1a.33.33,0,0,1-.31-.25l-4.67-18.49v18.41a.32.32,0,0,1-.31.32h-5a.32.32,0,0,1-.32-.32v-26.6a.32.32,0,0,1,.32-.32h8.07a.33.33,0,0,1,.31.23l4.54,17,4.46-17a.33.33,0,0,1,.3-.24h8.11a.32.32,0,0,1,.3.32Zm47.94-12.61a36.55,36.55,0,0,1-.43,6.85,7.91,7.91,0,0,1-1.69,3.47,8.32,8.32,0,0,1-3.26,2.26,14.12,14.12,0,0,1-5.26.84,15.28,15.28,0,0,1-5.93-.91A8.72,8.72,0,0,1,64,226.2a7.74,7.74,0,0,1-1.58-3.08,32.65,32.65,0,0,1-.53-6.83V202.08a.32.32,0,0,1,.31-.32h5.42a.32.32,0,0,1,.31.32V216.5a29.55,29.55,0,0,0,.19,4.39,4.1,4.1,0,0,0,1.52,2.44,5.44,5.44,0,0,0,3.37.92,5.1,5.1,0,0,0,3.26-.88,3.27,3.27,0,0,0,1.29-2.09,29,29,0,0,0,.23-4.47V202.08a.32.32,0,0,1,.32-.32h5.41a.31.31,0,0,1,.31.32Zm46,9.32a7.93,7.93,0,0,1-3.73,3.09,15.58,15.58,0,0,1-5.94,1c-3.43,0-6.12-.82-8-2.41a10.46,10.46,0,0,1-3.34-7,.31.31,0,0,1,.06-.23.24.24,0,0,1,.21-.11l5.24-.52a.32.32,0,0,1,.34.25,6.13,6.13,0,0,0,1.82,3.7,5.47,5.47,0,0,0,3.68,1.15,5.67,5.67,0,0,0,3.71-1,2.92,2.92,0,0,0,1.21-2.33,2.15,2.15,0,0,0-.48-1.41,4.18,4.18,0,0,0-1.8-1.06c-.61-.21-2-.6-4.26-1.16-2.9-.73-5-1.63-6.18-2.72a7.25,7.25,0,0,1-2.56-5.59,7.17,7.17,0,0,1,1.21-4,7.44,7.44,0,0,1,3.46-2.82,13.84,13.84,0,0,1,5.37-1c3.41,0,6,.77,7.76,2.28a8.15,8.15,0,0,1,2.77,6.11.32.32,0,0,1-.31.33l-5.41.21a.34.34,0,0,1-.33-.26,4.19,4.19,0,0,0-1.35-2.74,5,5,0,0,0-3.18-.83,5.78,5.78,0,0,0-3.46.9,1.62,1.62,0,0,0-.72,1.4,1.73,1.73,0,0,0,.69,1.37c.43.38,1.63,1,4.8,1.72a26.23,26.23,0,0,1,5.86,1.95,7.71,7.71,0,0,1,3.06,2.83,8.74,8.74,0,0,1-.22,8.87Zm32.49,3.29a.33.33,0,0,1-.33.32h-5.41a.33.33,0,0,1-.32-.32v-26.6a.32.32,0,0,1,.32-.32H162a.33.33,0,0,1,.33.32ZM207,227.25a11.75,11.75,0,0,1-7.29,2.2,11.9,11.9,0,0,1-9-3.73c-2.33-2.45-3.51-5.86-3.51-10.13,0-4.49,1.18-8,3.52-10.53a12.21,12.21,0,0,1,9.31-3.78,11.52,11.52,0,0,1,8.17,3,10.82,10.82,0,0,1,2.84,5,.4.4,0,0,1,0,.24.31.31,0,0,1-.2.15L205.46,211a.31.31,0,0,1-.25,0,.33.33,0,0,1-.14-.19,5.28,5.28,0,0,0-1.88-3.09,5.39,5.39,0,0,0-3.45-1.12,5.76,5.76,0,0,0-4.59,2c-1.18,1.35-1.78,3.6-1.78,6.68,0,3.27.58,5.63,1.75,7a5.65,5.65,0,0,0,4.5,2,5.11,5.11,0,0,0,3.5-1.29,7.65,7.65,0,0,0,2.13-4.13.32.32,0,0,1,.15-.21.29.29,0,0,1,.25,0l5.24,1.62a.3.3,0,0,1,.2.38A12.07,12.07,0,0,1,207,227.25Zm9.79-34.93H3.68V3.65h213.1ZM166.15,54.08h38.74a35.61,35.61,0,0,1-10.41,22.41A36,36,0,0,1,168.93,87c-.84,0-1.72,0-2.59-.08a3,3,0,0,0-.4,5.9c1,.06,2,.09,3,.09a41.88,41.88,0,0,0,29.74-12.22A41.41,41.41,0,0,0,211,51.14a3,3,0,0,0-3-3H169.25a36.05,36.05,0,0,1,36-32.89c.87,0,1.75,0,2.56.1A3,3,0,0,0,211,12.62a3,3,0,0,0-2.75-3.14c-1-.07-2-.1-3-.1a41.92,41.92,0,0,0-42,41.75A2.76,2.76,0,0,0,164,53.2,2.91,2.91,0,0,0,166.15,54.08Zm0,93.86h38.74a35.61,35.61,0,0,1-10.41,22.42,36,36,0,0,1-25.55,10.51c-.85,0-1.72,0-2.59-.1a2.95,2.95,0,1,0-.4,5.88c1,.06,2,.11,3,.11a41.88,41.88,0,0,0,29.74-12.26A41.22,41.22,0,0,0,211,145a2.91,2.91,0,0,0-3-2.94H169.25a36.07,36.07,0,0,1,36-32.95c.87,0,1.75,0,2.56.1A3,3,0,0,0,211,106.5a3,3,0,0,0-2.75-3.18c-1-.06-2-.09-3-.09a42,42,0,0,0-42,41.79,2.86,2.86,0,0,0,.85,2.09A3.07,3.07,0,0,0,166.15,147.94Zm-98-2.93a42,42,0,0,0,64.52,35.24l.23,5.16.25-5.45a42.2,42.2,0,0,0,6.78-5.46A41.21,41.21,0,0,0,152.26,145a42.18,42.18,0,0,0-.63-7l1.79-.19-1.86-.21A41.46,41.46,0,0,0,140,115.45a43.07,43.07,0,0,0-6.57-5.3l-.46-8.58-.43,8A42,42,0,0,0,68.9,137.54l-7.5.23,7.43.22A41.69,41.69,0,0,0,68.19,145Zm67.56-25.37a35.21,35.21,0,0,1,9.6,17.22l-10.57-1.18-1-17.78C134.48,118.47,135.14,119,135.76,119.64Zm-.78,20.2,10.76-1.21a37.5,37.5,0,0,1,.58,6.38,35.35,35.35,0,0,1-10.57,25.35c-.71.71-1.47,1.36-2.22,2Zm-24.74-30.72a36,36,0,0,1,21.88,7.41l-1,19.15L75,137.37A36.14,36.14,0,0,1,110.24,109.12Zm-35.45,29,56.07,1.67,1.52,33.43A36.12,36.12,0,0,1,74.11,145,35,35,0,0,1,74.79,138.17Zm-6.6-87A41.45,41.45,0,0,0,80.51,80.67c.69.69,1.42,1.31,2.16,1.94L83,90.23l.3-7A42.26,42.26,0,0,0,140,80.67a41.4,41.4,0,0,0,12.29-29.53,42.21,42.21,0,0,0-.87-8.46l1.48-.05-1.5,0a41.47,41.47,0,0,0-11.4-21A42.26,42.26,0,0,0,83.68,18.8L83,6.45,82.27,20a41.64,41.64,0,0,0-13,21.83l-6.77.75,6.45.73A41.19,41.19,0,0,0,68.19,51.14Zm42-35.85A36.05,36.05,0,0,1,135.76,25.8a35.3,35.3,0,0,1,9.44,16.59L84.85,40.55l-.76-14.07A36.14,36.14,0,0,1,110.24,15.29ZM85.06,44.72l60.26-1.86a36.26,36.26,0,0,1,1,8.28,35.34,35.34,0,0,1-10.57,25.36,36.29,36.29,0,0,1-51.05,0c-.36-.36-.67-.74-1-1.12ZM81.77,29.15l-.62,11.39-5.58.62A35.86,35.86,0,0,1,81.77,29.15ZM74.83,44l6.12.69,1.31,29.11a35.33,35.33,0,0,1-8.15-22.69A36.5,36.5,0,0,1,74.83,44ZM12.44,186.76a3,3,0,0,0,3-3V113.5l4.85,4.81,11,11a3,3,0,0,0,4.2,0l12.74-12.66,3.13-3.11v70.32a2.94,2.94,0,0,0,3,3,3,3,0,0,0,3-3V106.37a3,3,0,0,0-5.08-2.09L44,112.45,33.39,123l-8.94-8.87-9.89-9.85a3.07,3.07,0,0,0-3.26-.63,3,3,0,0,0-1.81,2.72v77.44A3,3,0,0,0,12.44,186.76Zm0-93.87a3,3,0,0,0,3-3V55.48l36.8,36.57a3,3,0,0,0,4.2,0,3,3,0,0,0,0-4.17l-37-36.74,37-36.73a3,3,0,0,0-4.2-4.18L15.42,46.79V12.32a3,3,0,0,0-5.94,0V89.93A3,3,0,0,0,12.44,92.89Z"/></g></g></svg>