<svg xmlns="http://www.w3.org/2000/svg" viewBox="0 0 268.49 268.48"><title>kosmos_circle</title><g id="Слой_2" data-name="Слой 2"><g id="Слой_1-2" data-name="Слой 1"><path d="M134.25,0h-.52C62.95.29,5,55.59.33,125.28c-.19,3-.33,5.94-.33,9,0,3.33.17,6.63.4,9.91,5.08,69.23,62.87,124,133.32,124.31l.52,0h0c73.84,0,134-59.94,134.23-133.73,0-.17,0-.34,0-.51h0C268.49,60.23,208.26,0,134.25,0Zm0,264.51C62.41,264.51,4,206.09,4,134.25S62.41,4,134.25,4,264.52,62.41,264.52,134.25,206.08,264.51,134.25,264.51Z"/><path d="M197.27,90.26c-1,9.3-3.52,34.07-3.52,34.11a106.2,106.2,0,0,0-.43,12c0,.33,0,.65.06,1,.05,1.64.12,3.29.25,4.92,0,.23.06.44.07.68.14,1.72.32,3.44.54,5.13l0,.28c3.08,23,13.06,44,23.86,60.84A112.52,112.52,0,1,0,34.23,185.84c87.4,43.53,137.4-7.89,160.39-99.05l-.19.14-3.37,6.67L192.53,86l2.13-3.41a48.21,48.21,0,0,1,.95-10.69,33.91,33.91,0,0,1,4.7-11.41h.07a15.89,15.89,0,0,1,1.75-2.5,33.44,33.44,0,0,1,.72,15.33,43,43,0,0,1-3.11,10.25l.73,4L199,95.11l-.61-7.4-.58-1c-.09.05-.14.05-.18.1a1.8,1.8,0,0,1-1,.48l-.32,1.58-1.07,5.52-.44,0,1.39-7.11a1.66,1.66,0,0,1-.69-.76C176.16,173.87,132.72,213.27,80.3,233a109.89,109.89,0,0,0,20.63,8.69c59.84-38.76,84.1-86.5,95.39-152.85l.32-1.59a1.71,1.71,0,0,0,1-.48s-.06.59-.17,1.61C197.4,88.92,197.34,89.54,197.27,90.26ZM60.67,137.88l-.89,6.46-.88-6.46-4.12-1,4-1,1-13.17,1,13.17,6.36,1Zm20-59-1.41,9.46L77.8,79l-8.88-1.41,8.88-1.38,1.44-9.35,1.41,9.51,4.9,1.22Zm32.23,11.27-1.42,19.2-1.36-19.2-9.36-1.43,9.5-1.4,1.23-9.47,1.29,9.47,6.07,1.4Zm21.06-39.34-.55,4.11-.53-4.11-4.12-.64,4.09-.58.57-8.38.64,8.38,2.55.58Zm30.62,30.62-1.19,8.91-1.17-8.91-5.72-1.38,5.58-1.33L163.37,67l1.32,11.7,8.88,1.33Z"/><path d="M147,25.67a1.26,1.26,0,0,0-1.32.84,1,1,0,0,0-.09.31l-.09.77a1.28,1.28,0,0,0,0,.33A1.25,1.25,0,0,0,146.57,29c.85.09,1.42-.55,1.54-1.56S147.83,25.77,147,25.67Z"/><path d="M22.38,101.29l.69-1.83-2.38-.89a25.6,25.6,0,0,0,2.33-5l.06-.16a30.79,30.79,0,0,0,1.68-6.83,13.38,13.38,0,0,0-2.87-1.61,14,14,0,0,0-3.22-.67,31.35,31.35,0,0,0-3.21,6.26l0,.07v.09a30.75,30.75,0,0,0-1.68,6.82,14.55,14.55,0,0,0,2.87,1.62Zm-5.27-9.87.14-.32a28.29,28.29,0,0,1,2.16-4.46,5,5,0,0,1,1.91.13,4.93,4.93,0,0,1,1.34,1.08,29.14,29.14,0,0,1-1.29,4.79l-.12.34a32,32,0,0,1-2.46,4.93l-1.42-.53a4.88,4.88,0,0,1-1.54-1.16A31.09,31.09,0,0,1,17.11,91.42Z"/><path d="M24.12,82.47A16.08,16.08,0,0,0,28,84a30.19,30.19,0,0,0,2.35-2.79,28.31,28.31,0,0,0,1.88-2.87l.05-.08.07-.14a26.59,26.59,0,0,0,1.39-3,31.83,31.83,0,0,0,1.11-3.46l-2.19,1a28.28,28.28,0,0,1-2,4.67l-.05.1a29,29,0,0,1-2.87,4.18,4.48,4.48,0,0,1-1.78-.31L29.41,75l-1.6-.88-3.53,6.35A5.71,5.71,0,0,1,22.91,79a28.64,28.64,0,0,1,2-4.55l.17-.29a29.58,29.58,0,0,1,2.81-4.09l-.38-2.44a31.15,31.15,0,0,0-4.09,5.71l-.09.14A31.41,31.41,0,0,0,20.63,80a15.67,15.67,0,0,0,1.67,1.35A15.14,15.14,0,0,0,24.12,82.47Z"/><path d="M31.78,66.54l4.9,3.76,1.19-1.55-2-1.54a26.88,26.88,0,0,0,3.47-3.84l.22-.3,1.78-2.33,2.36.33,1.13-1.47-2.56-.43.24-.64.76-1.66A14.71,14.71,0,0,0,41,54.51a14.26,14.26,0,0,0-2.9-1.57,31.39,31.39,0,0,0-4.89,5l-.06.06,0,.08a30.61,30.61,0,0,0-3.6,6A14.81,14.81,0,0,0,31.78,66.54Zm2.74-7.22.22-.27a29.05,29.05,0,0,1,3.37-3.64,4.87,4.87,0,0,1,1.78.69,4.78,4.78,0,0,1,1,1.42,29.73,29.73,0,0,1-2.63,4.21L38,62a32.56,32.56,0,0,1-3.78,4L33,65.08a2.65,2.65,0,0,1-.59-.62,9.48,9.48,0,0,1-.55-.93A31.33,31.33,0,0,1,34.52,59.32Z"/><path d="M52.14,38h0Z"/><path d="M53,50.59l1.5-1.27-2.17-2.57,8.49-7.14L63,42.2l1.5-1.26L61.16,37a16.47,16.47,0,0,0-3-2.83,31.2,31.2,0,0,0-3.2,1.77,25.74,25.74,0,0,0-2.77,2,25.35,25.35,0,0,0-2.46,2.38,33.79,33.79,0,0,0-2.28,2.84,16.18,16.18,0,0,0,2.26,3.48Zm.24-11.09.09-.08.07-.06a29.86,29.86,0,0,1,4.15-2.84,5.59,5.59,0,0,1,2.08,1.71l-8.49,7.13A5.48,5.48,0,0,1,49.82,43,27.29,27.29,0,0,1,53.23,39.5Z"/><path d="M63.71,35.06l.53.84,11-6.76.19-.1,0,.06A4.19,4.19,0,0,1,76,30.78a31.41,31.41,0,0,1-4,3l-.3.17a29.58,29.58,0,0,1-4.46,2.18l-.87,2.32a31.07,31.07,0,0,0,6.38-3l.14-.08A31.64,31.64,0,0,0,78.43,31a17.88,17.88,0,0,0-1.8-3.9l-.46-.74L64.93,33.3a4.43,4.43,0,0,1-.55-1.87,30.54,30.54,0,0,1,4-3l.3-.18a30.56,30.56,0,0,1,4.46-2.17L74,23.78a30.29,30.29,0,0,0-6.37,3l-.14.08a30.94,30.94,0,0,0-5.52,4.34,15.5,15.5,0,0,0,.78,2A16.91,16.91,0,0,0,63.71,35.06Z"/><path d="M81.23,30.33,83,29.57l-1-2.34a27,27,0,0,0,5.26-1.78l.17-.07a31.4,31.4,0,0,0,6.1-3.48,14,14,0,0,0-.8-3.2A15,15,0,0,0,91,15.92a31.19,31.19,0,0,0-6.75,2l-.09,0-.07.05A30.6,30.6,0,0,0,78,21.45a14.54,14.54,0,0,0,.79,3.19Zm3.55-10.61.34-.14a29.27,29.27,0,0,1,4.72-1.49,5.11,5.11,0,0,1,1.22,1.49,5.41,5.41,0,0,1,.14,1.71,30.29,30.29,0,0,1-4.37,2.37l-.34.13a32.55,32.55,0,0,1-5.26,1.6L80.63,24a4.62,4.62,0,0,1-.22-1.91A28.8,28.8,0,0,1,84.77,19.72Z"/><path d="M96.09,18.65a16.49,16.49,0,0,0,1.52,3.87,28.6,28.6,0,0,0,3.64-.22,24.19,24.19,0,0,0,3.37-.61h.1l.15,0A30.33,30.33,0,0,0,108,20.56,32.13,32.13,0,0,0,111.29,19L109,18.11a29.37,29.37,0,0,1-4.78,1.74l-.11,0a28.52,28.52,0,0,1-5,.79,4.18,4.18,0,0,1-1-1.52l7-1.81-.45-1.78-7,1.81a5.86,5.86,0,0,1,.11-2,29.57,29.57,0,0,1,4.67-1.69l.33-.08a28.89,28.89,0,0,1,4.89-.78l1.52-2a31.14,31.14,0,0,0-7,1l-.15,0a30.71,30.71,0,0,0-6.56,2.54,17.89,17.89,0,0,0,.16,2.14A19.42,19.42,0,0,0,96.09,18.65Z"/><path d="M113.61,19.38l1.94-.19-.26-2.53a24.86,24.86,0,0,0,5.16-.12l.38,0,2.92-.3,1.38,1.94L127,18l-1.44-2.17.62-.26,1.72-.59a14.54,14.54,0,0,0,.17-3.29,13.78,13.78,0,0,0-.85-3.18,31.83,31.83,0,0,0-7-.08h-.09l-.08,0a31.11,31.11,0,0,0-6.86,1.54,14.57,14.57,0,0,0-.17,3.29Zm1.32-7.09a8.32,8.32,0,0,1,.29-1,28.28,28.28,0,0,1,4.87-1l.36,0a30.57,30.57,0,0,1,5-.05,5.1,5.1,0,0,1,.73,1.78,5,5,0,0,1-.37,1.68,30.13,30.13,0,0,1-4.85,1l-.37,0a33.93,33.93,0,0,1-5.51,0l-.16-1.51A2.55,2.55,0,0,1,114.93,12.29Z"/><path d="M133.08,14.33l11.07.5L144,18.19l2,.09.23-5.13A16.17,16.17,0,0,0,145.87,9a31.2,31.2,0,0,0-3.55-.86,26.37,26.37,0,0,0-3.39-.41h0a25.49,25.49,0,0,0-3.43.09,32,32,0,0,0-3.61.55,16.26,16.26,0,0,0-.69,4.09L131,17.6l2,.09Zm.71-4.46a29.23,29.23,0,0,1,4.88-.26h.22a29.39,29.39,0,0,1,5,.71,5.48,5.48,0,0,1,.38,2.66l-11.06-.5A5.43,5.43,0,0,1,133.79,9.87Z"/><path d="M166.29,11.76s0,0,0,0h0Z"/><path d="M159.17,16.94l10.71,2.87L169,23.07l1.88.5,1.34-5a16.14,16.14,0,0,0,.58-4.12,32.54,32.54,0,0,0-3.28-1.61,26.11,26.11,0,0,0-3.23-1.12,25.85,25.85,0,0,0-3.36-.64,28.19,28.19,0,0,0-3.64-.24,15.7,15.7,0,0,0-1.56,3.85l-1.33,5,1.89.51Zm1.65-4.2a28.78,28.78,0,0,1,4.82.8l.11,0,.1,0a28.57,28.57,0,0,1,4.69,1.76,5.5,5.5,0,0,1-.19,2.68l-10.71-2.87A5.48,5.48,0,0,1,160.82,12.74Z"/><path d="M187,29.23a16.3,16.3,0,0,0,2.12-3.57c.28-.66.53-1.34.74-2a19.71,19.71,0,0,0,.5-2.1A31.56,31.56,0,0,0,184.35,18l-.07,0-7-3-4.07,9.31,7.13,3.12A27.54,27.54,0,0,0,187,29.23Zm-8.7-11.79,5,2.18.33.12A30.55,30.55,0,0,1,188,22.16a6.58,6.58,0,0,1-.67,2.78,5.44,5.44,0,0,1-1.52,2.22A30.28,30.28,0,0,1,181,25.58l-.05,0-5.14-2.26Z"/><path d="M208.35,31.56v0h0Z"/><path d="M199.82,33.81l8.94,6.56-2,2.72,1.57,1.16,3-4.14a16.52,16.52,0,0,0,2-3.63A32,32,0,0,0,211,33.79a27.12,27.12,0,0,0-2.59-2.21,27.56,27.56,0,0,0-2.9-1.82,35,35,0,0,0-3.31-1.55,16.51,16.51,0,0,0-2.86,3l-3,4.14,1.57,1.16Zm3.08-3.32A30.13,30.13,0,0,1,207.1,33l.09.07.09.06A28.64,28.64,0,0,1,211,36.46a5.58,5.58,0,0,1-1.15,2.43l-8.93-6.57A5.51,5.51,0,0,1,202.9,30.49Z"/><path d="M222.81,43.84a31,31,0,0,0-5.52-4.35,16.63,16.63,0,0,0-1.77,1.23,20,20,0,0,0-1.6,1.43l-.7.71L222.39,52l.14.17-.07.05a3.83,3.83,0,0,1-1.5.85,29.63,29.63,0,0,1-3.83-3.14l-.25-.25a30,30,0,0,1-3.17-3.81l-2.46-.3a31.37,31.37,0,0,0,4.38,5.51l.11.11a31.82,31.82,0,0,0,5.53,4.35c.61-.38,1.2-.8,1.77-1.24a20.65,20.65,0,0,0,1.6-1.44l.61-.61-9.36-9.32a4.62,4.62,0,0,1,1.68-1,28.41,28.41,0,0,1,3.83,3.14l.25.25a29.8,29.8,0,0,1,3.17,3.82l2.46.3a31.81,31.81,0,0,0-4.38-5.5Z"/><path d="M231.75,56.64A16.11,16.11,0,0,1,232.92,58l-.27.25L226.33,63l1.11,1.47,6.32-4.74.28-.19A12.91,12.91,0,0,1,235,61c.35.6.73,1.3,1.16,2.12l2.37.65A30.87,30.87,0,0,0,235,57.68l-.09-.12a31.16,31.16,0,0,0-4.85-5.11l-.34,2.26.3.22C230.68,55.55,231.26,56.12,231.75,56.64Z"/><path d="M232.42,71.17l.93,1.71,2.22-1.21a26.33,26.33,0,0,0,2.1,4.72l.18.34,1.4,2.57-1.26,2,.88,1.62,1.44-2.16.48.48,1.2,1.36a14,14,0,0,0,3.1-1.12,13.15,13.15,0,0,0,2.62-2A30.86,30.86,0,0,0,245.09,73l0-.09-.06-.07a31.17,31.17,0,0,0-4.05-5.74,14.51,14.51,0,0,0-3.11,1.12Zm7.06-1.51a7.79,7.79,0,0,1,1.07-.13,28.08,28.08,0,0,1,2.78,4.11l.17.31a30.2,30.2,0,0,1,1.95,4.55,5.22,5.22,0,0,1-1.36,1.37,5.13,5.13,0,0,1-1.68.3,28.56,28.56,0,0,1-2.79-4.11l-.17-.32a33.9,33.9,0,0,1-2.12-5.09l1.34-.74A3.06,3.06,0,0,1,239.47,69.66Z"/><path d="M240.72,86.44l.66,1.84,3.17-1.16,3.81,10.41-3.16,1.15.67,1.84,4.82-1.77a16.77,16.77,0,0,0,3.7-1.88,30.12,30.12,0,0,0-.57-3.61,27,27,0,0,0-.94-3.3v0a27.53,27.53,0,0,0-1.42-3.12,28.47,28.47,0,0,0-1.89-3.12,16.17,16.17,0,0,0-4,.94Zm8.22-.38a29.31,29.31,0,0,1,2.12,4.41l0,.1.05.1a29.18,29.18,0,0,1,1.24,4.86,5.32,5.32,0,0,1-2.3,1.38l-3.8-10.41A5.52,5.52,0,0,1,248.94,86.06Z"/><path d="M22.63,177.09a17.13,17.13,0,0,0,1.9-1,31.68,31.68,0,0,0-1.36-6.9l0-.06-2.33-7.23L11.16,165l2.38,7.4a27.36,27.36,0,0,0,3,6.25,16.33,16.33,0,0,0,4.07-.78A17.9,17.9,0,0,0,22.63,177.09Zm-5.33-.73a29.42,29.42,0,0,1-2-4.67v-.05l-1.73-5.36,6.1-2,1.68,5.19.12.33a27.91,27.91,0,0,1,1.07,4.84A6.66,6.66,0,0,1,20,176,5.38,5.38,0,0,1,17.3,176.36Z"/><path d="M21.1,181.64l3.14,6.54,1.66-.79-3.15-6.55a5.17,5.17,0,0,1,2-.28,28.45,28.45,0,0,1,2.58,4.24l.14.31a30.08,30.08,0,0,1,1.72,4.65l2.22,1.1a32,32,0,0,0-2.3-6.65l-.06-.14a30.9,30.9,0,0,0-3.77-5.94,19.6,19.6,0,0,0-2.07.58,18.17,18.17,0,0,0-2,.82,16,16,0,0,0-3.5,2.25,30.28,30.28,0,0,0,.93,3.53,27.43,27.43,0,0,0,1.23,3.2l.06.08.06.15a24.4,24.4,0,0,0,1.68,2.87,31,31,0,0,0,2.17,2.9l.43-2.37a28.57,28.57,0,0,1-2.64-4.36l0-.09a29.4,29.4,0,0,1-1.75-4.76A4.38,4.38,0,0,1,21.1,181.64Z"/><path d="M29.7,202.24a29.15,29.15,0,0,1-2.37-4.48,4.6,4.6,0,0,1,1.11-1.45l4,6.07,1.54-1-4-6.07a5.94,5.94,0,0,1,1.92-.54,28.51,28.51,0,0,1,3.1,3.86l.19.29a30,30,0,0,1,2.32,4.38l2.35.8a30.93,30.93,0,0,0-3.16-6.28l-.08-.14a31.51,31.51,0,0,0-4.52-5.38,20.57,20.57,0,0,0-2,.85,18.83,18.83,0,0,0-1.87,1.08,16.38,16.38,0,0,0-3.16,2.69,32.26,32.26,0,0,0,1.37,3.38,29.39,29.39,0,0,0,1.68,3l.05.08.09.14a30.74,30.74,0,0,0,2,2.63,32.22,32.22,0,0,0,2.55,2.58l.09-2.41a29.45,29.45,0,0,1-3.19-4Z"/><path d="M46.07,210.11l-.07,0a30.94,30.94,0,0,0-5.21-4.74A14.83,14.83,0,0,0,38,207.09l-4.67,4.07,1.29,1.47L36.55,211a27.66,27.66,0,0,0,3.31,4.46l.13.12a31.3,31.3,0,0,0,5.2,4.73A14.44,14.44,0,0,0,48,218.52,14.24,14.24,0,0,0,50.09,216a30.68,30.68,0,0,0-4-5.79Zm.56,7a5.94,5.94,0,0,1-1.59.66,30.31,30.31,0,0,1-3.6-3.42l-.22-.27A31.62,31.62,0,0,1,38,209.61l1.15-1a4.81,4.81,0,0,1,1.75-.79,29.7,29.7,0,0,1,3.6,3.41l.23.26a30.31,30.31,0,0,1,2.9,4A5.41,5.41,0,0,1,46.63,217.14Z"/><path d="M61.71,227.72l.28.21a29.5,29.5,0,0,1,3.63,3.38h2.47a31.47,31.47,0,0,0-5-4.9l-.12-.1a31.51,31.51,0,0,0-6-3.6,16.48,16.48,0,0,0-1.6,1.44,19.2,19.2,0,0,0-1.42,1.63,16.36,16.36,0,0,0-2.1,3.59,29.9,29.9,0,0,0,5,5l.07.05.12.1a26.83,26.83,0,0,0,2.8,1.82,29.58,29.58,0,0,0,3.25,1.6l-.69-2.3A30.63,30.63,0,0,1,58,232.95l-.08-.07a29,29,0,0,1-3.71-3.46,4.36,4.36,0,0,1,.58-1.73l5.76,4.43,1.13-1.46-5.76-4.42a5.59,5.59,0,0,1,1.63-1.14A28.84,28.84,0,0,1,61.71,227.72Z"/><path d="M71.81,242.26l-.09-.05a28.51,28.51,0,0,1-4.14-2.94,5.46,5.46,0,0,1,.87-2.55l2.6-4.51-1.7-1L66.8,235.7a16,16,0,0,0-1.62,3.82,31.58,31.58,0,0,0,2.76,2.4,30.23,30.23,0,0,0,2.85,1.91l.08,0L71,244a25.48,25.48,0,0,0,3,1.43,30.65,30.65,0,0,0,3.44,1.16l-1-2.2A29.4,29.4,0,0,1,71.81,242.26Z"/><path d="M89.09,243.63l.3.12A29.82,29.82,0,0,1,93.79,246l2.38-.67A31.51,31.51,0,0,0,90,242l-.15-.06a31,31,0,0,0-6.78-1.86,16.25,16.25,0,0,0-1.14,1.81,17.64,17.64,0,0,0-.92,1.94,16.21,16.21,0,0,0-1.08,4,31.56,31.56,0,0,0,3.06,2,27.36,27.36,0,0,0,3.06,1.51l.09,0,.15.06a25.8,25.8,0,0,0,3.17,1,30.28,30.28,0,0,0,3.55.68l-1.28-2a30,30,0,0,1-4.87-1.45l-.1,0a29.53,29.53,0,0,1-4.5-2.36,4.5,4.5,0,0,1,.09-1.81l6.75,2.72.69-1.7-6.73-2.73a5.69,5.69,0,0,1,1.26-1.53A29.84,29.84,0,0,1,89.09,243.63Z"/><path d="M99.17,247.9a28.53,28.53,0,0,1,4.9.77l.34.08a29.9,29.9,0,0,1,4.67,1.68l2.26-1a31.12,31.12,0,0,0-6.57-2.51l-.14,0a31.19,31.19,0,0,0-7-.94,16.17,16.17,0,0,0-.9,2,19.44,19.44,0,0,0-.66,2.05,16.73,16.73,0,0,0-.53,4.12,29.53,29.53,0,0,0,3.3,1.57,26.69,26.69,0,0,0,3.24,1.09l.1,0,.15,0a27.66,27.66,0,0,0,3.28.58,33.7,33.7,0,0,0,3.61.2l-1.55-1.86a28.17,28.17,0,0,1-5-.78l-.11,0a29.61,29.61,0,0,1-4.77-1.72,5.35,5.35,0,0,1,.17-2.68A6.58,6.58,0,0,1,99.17,247.9Z"/><path d="M119.44,249.75a31.25,31.25,0,0,0-7-.07l1.38,1.82.36-.06c.92,0,1.73-.06,2.43-.05a15.68,15.68,0,0,1,1.81.11l0,.34-1,7.84,1.83.23,1-7.85.06-.34c.49.06,1.07.17,1.73.32s1.45.39,2.33.66l2.13-1.27a31.35,31.35,0,0,0-6.82-1.66Z"/><path d="M135.13,250.61H135l-.1,0a30.84,30.84,0,0,0-7,.9,13.83,13.83,0,0,0-.47,3.26l.08,6.18,2,0,0-2.53a26.14,26.14,0,0,0,5.16.35h.38l2.92,0,1.21,2.07,1.84,0-1.24-2.28.64-.21,1.75-.42a13.54,13.54,0,0,0,.47-3.26,14.37,14.37,0,0,0-.54-3.26A32.13,32.13,0,0,0,135.13,250.61Zm5.1,5.75a28.87,28.87,0,0,1-4.93.53h-.35a31.54,31.54,0,0,1-5.49-.51l0-1.52a2.45,2.45,0,0,1,.14-.84,10.14,10.14,0,0,1,.38-1,29.11,29.11,0,0,1,4.94-.54h.35a28.81,28.81,0,0,1,4.95.41,5.21,5.21,0,0,1,.57,1.83A5.49,5.49,0,0,1,140.23,256.36Z"/><path d="M158.92,251.28a16,16,0,0,0-.7-2,31.27,31.27,0,0,0-7,.26H151a31.73,31.73,0,0,0-6.78,1.86,19.36,19.36,0,0,0-.06,2.15,19.76,19.76,0,0,0,.21,2.15,15.79,15.79,0,0,0,1.13,4,30.71,30.71,0,0,0,3.64.16,25.71,25.71,0,0,0,3.42-.27l.26,0a28.53,28.53,0,0,0,3.24-.75,34.52,34.52,0,0,0,3.41-1.24,18.22,18.22,0,0,0-.58-6.26Zm-1.57,5.16a29.38,29.38,0,0,1-4.93,1.25h-.11a28.44,28.44,0,0,1-5.07.28,5.52,5.52,0,0,1-.9-2.53,6.6,6.6,0,0,1,.08-2.86,28.75,28.75,0,0,1,4.8-1.2l.35-.06a30.08,30.08,0,0,1,4.95-.29,6.88,6.88,0,0,1,.93,2.71A5.49,5.49,0,0,1,157.35,256.44Z"/><path d="M173.77,245a30.91,30.91,0,0,0-3.64.35,30.5,30.5,0,0,0-3.34.74h0a28.77,28.77,0,0,0-3.21,1.22,33.39,33.39,0,0,0-3.23,1.71,16.75,16.75,0,0,0,.7,4.09l1.49,4.93,1.86-.56-1.5-5a5.37,5.37,0,0,1-.26-2.67,26.58,26.58,0,0,1,4.51-1.87l.1,0,.1,0a28.32,28.32,0,0,1,4.93-1,5.53,5.53,0,0,1,1.24,2.38l1.49,5,1.88-.57-1.48-4.91A16,16,0,0,0,173.77,245Z"/><path d="M187.44,247a16.75,16.75,0,0,1-1.5.85l-2.69-5.9a28.8,28.8,0,0,1,4-1.27l1.16-2.2a31.93,31.93,0,0,0-6.69,2.15l-.15.07a31.66,31.66,0,0,0-6,3.63l2.12.83.28-.25a28.71,28.71,0,0,1,3.64-2.19l2.68,5.9c-.46.18-1,.39-1.68.6s-1.47.44-2.38.67L179,251.95a29.63,29.63,0,0,0,3.55-.84,25.78,25.78,0,0,0,3.22-1.18l.08,0,.14-.06a25,25,0,0,0,2.92-1.61,32.91,32.91,0,0,0,2.95-2.11l-2.37-.48C188.72,246.17,188,246.61,187.44,247Z"/><path d="M199.81,240.37l-.09.05a28.74,28.74,0,0,1-4.53,2.26,5.59,5.59,0,0,1-1.83-2,6.63,6.63,0,0,1-1.06-2.65,28.74,28.74,0,0,1,3.94-3l.29-.18a27.83,27.83,0,0,1,4.43-2.22l.84-2.33a31.11,31.11,0,0,0-6.34,3l-.15.08a32,32,0,0,0-5.49,4.39q.36,1,.8,2a16.1,16.1,0,0,0,1,1.89,15.94,15.94,0,0,0,2.61,3.24,30.44,30.44,0,0,0,3.41-1.31,26.79,26.79,0,0,0,3-1.6l.08,0,.13-.09a26.64,26.64,0,0,0,2.69-2,32.65,32.65,0,0,0,2.64-2.48l-2.41-.17A29,29,0,0,1,199.81,240.37Z"/><path d="M222,217.44l-1.68,1.6-1.34-.94L217.27,217c-1,.62-1.94,1.26-2.85,1.95a26.29,26.29,0,0,0-2.61,2.22l-.19.17-3.57,3.36,7,7.37,5.66-5.33a27,27,0,0,0,4.35-5.4,16.39,16.39,0,0,0-2.46-3.35Zm-11.19,7.31,2-1.85.34-.33c.54-.51,1.15-1,1.78-1.56s1.32-1,2.06-1.56a5.22,5.22,0,0,1,1.65,1l-.81,1-5.37,5.08Zm8.53.75-4.13,3.89-1.51-1.6,5.23-4.94,2.48-2.36.43-.4.09.12a3.23,3.23,0,0,1,.75,1.46A28.81,28.81,0,0,1,219.29,225.5Z"/><path d="M231.09,212.87,231,213a29.51,29.51,0,0,1-3.55,3.62,4.26,4.26,0,0,1-1.71-.61l4.56-5.66-1.44-1.16-4.56,5.66a5.78,5.78,0,0,1-1.11-1.66A28.47,28.47,0,0,1,226,209l.22-.28a28.62,28.62,0,0,1,3.47-3.54l0-2.47a32,32,0,0,0-5,4.91l-.1.14a30.56,30.56,0,0,0-3.74,5.94,16.08,16.08,0,0,0,1.41,1.62,19.73,19.73,0,0,0,1.59,1.45,16.39,16.39,0,0,0,3.53,2.19,32.38,32.38,0,0,0,2.79-2.34,28.52,28.52,0,0,0,2.34-2.5l.06-.07.11-.14a25.33,25.33,0,0,0,1.88-2.74,31.59,31.59,0,0,0,1.68-3.2l-2.32.64A30.64,30.64,0,0,1,231.09,212.87Z"/><path d="M238,189.56a30.9,30.9,0,0,0-2.45,2.7,29.06,29.06,0,0,0-2,2.8h0a27.13,27.13,0,0,0-1.55,3.06,29.1,29.1,0,0,0-1.24,3.43A16.16,16.16,0,0,0,234,204.1l4.4,2.65,1-1.67-2.88-1.74,5.73-9.5,2.88,1.73,1-1.68-4.4-2.65A16.42,16.42,0,0,0,238,189.56Zm-3,12.83a5.5,5.5,0,0,1-2-1.79,28.32,28.32,0,0,1,2.09-4.42l.05-.09.06-.1a29.84,29.84,0,0,1,3-4,5.36,5.36,0,0,1,2.52.92Z"/><path d="M242.94,181c.2-.44.48-1,.82-1.57s.76-1.27,1.26-2L244.4,175a30.75,30.75,0,0,0-3.52,6.09l-.05.15a31.32,31.32,0,0,0-2,6.73l2.13-.82,0-.38c.22-.9.42-1.68.63-2.34a15.32,15.32,0,0,1,.6-1.71l.33.12,7.26,3.13.73-1.7-7.26-3.13Z"/><path d="M253.07,160.57l-.84-.23-3.54,12.71a4.62,4.62,0,0,1-1.68-1,29.29,29.29,0,0,1,.88-4.89l.08-.33a29.6,29.6,0,0,1,1.79-4.62l-.94-2.3a31.07,31.07,0,0,0-2.66,6.5l0,.15a30.64,30.64,0,0,0-1.09,7,19,19,0,0,0,1.93.93,18.49,18.49,0,0,0,2,.7l1,.27L253.44,163l.07-.19h.07a4,4,0,0,1,1.47.91,27.66,27.66,0,0,1-.86,4.88l-.09.34a29.61,29.61,0,0,1-1.78,4.62l.93,2.3a31.08,31.08,0,0,0,2.66-6.5l0-.17A30.36,30.36,0,0,0,257,162.2a19.6,19.6,0,0,0-1.93-.93A16.83,16.83,0,0,0,253.07,160.57Z"/><path d="M15.47,130.9a2.61,2.61,0,1,0-2.61,2.61A2.61,2.61,0,0,0,15.47,130.9Z"/><path d="M253.07,130.9a2.61,2.61,0,1,0,2.61-2.61A2.61,2.61,0,0,0,253.07,130.9Z"/></g></g></svg>